<svg xmlns="http://www.w3.org/2000/svg" viewBox="0 0 220 300" fill="none">
  <g stroke="#000" stroke-width="7" stroke-linecap="round" stroke-linejoin="round">
    <path d="M112 286C111 234 105 188 89 145C76 109 68 72 72 18"/>
    <path d="M86 139C45 126 25 92 36 53C73 64 96 98 86 139Z"/>
    <path d="M96 171C53 165 27 136 30 96C69 101 97 130 96 171Z"/>
    <path d="M108 203C67 204 36 181 30 142C69 140 101 164 108 203Z"/>
    <path d="M84 112C116 93 129 57 114 23C86 42 74 77 84 112Z"/>
    <path d="M100 151C137 135 158 101 149 63C114 80 96 113 100 151Z"/>
    <path d="M113 190C150 181 176 153 175 116C139 127 113 153 113 190Z"/>
    <path d="M123 233C159 229 187 206 193 169C156 175 129 198 123 233Z"/>
  </g>
</svg>